<?xml version="1.0" encoding="iso-8859-1"?>
<!-- Generator: Adobe Illustrator 19.0.0, SVG Export Plug-In . SVG Version: 6.00 Build 0)  -->
<svg version="1.1" id="Layer_1" xmlns="http://www.w3.org/2000/svg" xmlns:xlink="http://www.w3.org/1999/xlink" x="0px" y="0px"
	 viewBox="0 0 512 512" style="enable-background:new 0 0 512 512;" xml:space="preserve">
<path style="fill:#57565C;" d="M430.528,25.413H81.472c-9.288,0-16.818,7.53-16.818,16.818v452.952
	c0,9.288,7.53,16.818,16.818,16.818h349.056c9.288,0,16.818-7.53,16.818-16.818V42.231
	C447.346,32.942,439.816,25.413,430.528,25.413z"/>
<path style="fill:#414045;" d="M430.528,25.413H255.066V512h175.463c9.288,0,16.818-7.53,16.818-16.818V42.231
	C447.346,32.942,439.816,25.413,430.528,25.413z"/>
<path style="fill:#D0E6F7;" d="M406.423,480.981H103.708c-5.263,0-9.53-4.267-9.53-9.53V63.723c0-5.263,4.267-9.53,9.53-9.53
	h302.715c5.263,0,9.53,4.267,9.53,9.53v407.728C415.953,476.714,411.686,480.981,406.423,480.981z"/>
<path style="fill:#BBDDF7;" d="M406.423,54.193H255.626v426.788h150.797c5.263,0,9.53-4.267,9.53-9.53V63.723
	C415.953,58.459,411.686,54.193,406.423,54.193z"/>
<path style="fill:#F4C479;" d="M325.886,75.866H186.114c-4.953,0-8.969-4.016-8.969-8.969V8.969c0-4.953,4.016-8.969,8.969-8.969
	h139.773c4.953,0,8.969,4.016,8.969,8.969v57.927C334.856,71.85,330.84,75.866,325.886,75.866z"/>
<path style="fill:#9D2217;" d="M157.449,205.093c-4.304,0-8.608-1.641-11.891-4.926c-6.568-6.568-6.568-17.216,0-23.783
	l45.681-45.681c6.567-6.568,17.216-6.568,23.783,0s6.568,17.216,0,23.783l-45.681,45.681
	C166.057,203.451,161.753,205.093,157.449,205.093z"/>
<path style="fill:#DE3205;" d="M203.13,205.093c-4.304,0-8.608-1.641-11.891-4.926l-45.681-45.681
	c-6.568-6.568-6.568-17.216,0-23.783c6.567-6.568,17.216-6.568,23.783,0l45.681,45.681c6.568,6.568,6.568,17.216,0,23.783
	C211.738,203.451,207.434,205.093,203.13,205.093z"/>
<path style="fill:#155A8E;" d="M157.449,315.258c-4.304,0-8.608-1.641-11.891-4.926c-6.568-6.568-6.568-17.216,0-23.783
	l45.681-45.681c6.567-6.568,17.216-6.568,23.783,0c6.568,6.568,6.568,17.215,0,23.783l-45.681,45.681
	C166.057,313.615,161.753,315.258,157.449,315.258z"/>
<g>
	<path style="fill:#1E80CD;" d="M203.13,315.258c-4.304,0-8.608-1.641-11.891-4.926l-45.681-45.681
		c-6.568-6.568-6.568-17.216,0-23.783c6.567-6.568,17.216-6.568,23.783,0l45.681,45.681c6.568,6.568,6.568,17.216,0,23.783
		C211.738,313.615,207.434,315.258,203.13,315.258z"/>
	<path style="fill:#1E80CD;" d="M181.649,428.761c-23.709,0-42.999-19.29-42.999-42.999s19.29-42.999,42.999-42.999
		s42.999,19.29,42.999,42.999S205.359,428.761,181.649,428.761z M181.649,376.399c-5.163,0-9.364,4.201-9.364,9.364
		c0,5.163,4.201,9.364,9.364,9.364c5.163,0,9.364-4.201,9.364-9.364C191.013,380.6,186.812,376.399,181.649,376.399z"/>
</g>
<path style="fill:#9D2217;" d="M359.022,182.252h-97.078c-9.288,0-16.818-7.53-16.818-16.818c0-9.288,7.53-16.818,16.818-16.818
	h97.078c9.288,0,16.818,7.53,16.818,16.818C375.84,174.723,368.31,182.252,359.022,182.252z"/>
<g>
	<path style="fill:#1E80CD;" d="M359.022,292.416h-97.078c-9.288,0-16.818-7.53-16.818-16.818c0-9.288,7.53-16.818,16.818-16.818
		h97.078c9.288,0,16.818,7.53,16.818,16.818C375.84,284.886,368.31,292.416,359.022,292.416z"/>
	<path style="fill:#1E80CD;" d="M359.022,402.581h-97.078c-9.288,0-16.818-7.53-16.818-16.818s7.53-16.818,16.818-16.818h97.078
		c9.288,0,16.818,7.53,16.818,16.818S368.31,402.581,359.022,402.581z"/>
</g>
<path style="fill:#EDA637;" d="M325.886,0h-70.26v75.866h70.26c4.953,0,8.969-4.016,8.969-8.969V8.969
	C334.856,4.016,330.84,0,325.886,0z"/>
<g>
</g>
<g>
</g>
<g>
</g>
<g>
</g>
<g>
</g>
<g>
</g>
<g>
</g>
<g>
</g>
<g>
</g>
<g>
</g>
<g>
</g>
<g>
</g>
<g>
</g>
<g>
</g>
<g>
</g>
</svg>
